<mxfile host="app.diagrams.net" modified="2024-03-04T14:12:23.408Z" agent="Mozilla/5.0 (X11; Linux x86_64) AppleWebKit/537.36 (KHTML, like Gecko) Chrome/112.0.0.0 Safari/537.36" etag="LN4Ep41TKgqRFebJcl1a" version="24.0.1" type="github">
  <diagram name="Page-1" id="dj07TxTokKtc0p4vmlVk">
    <mxGraphModel dx="996" dy="589" grid="1" gridSize="10" guides="1" tooltips="1" connect="1" arrows="1" fold="1" page="1" pageScale="1" pageWidth="850" pageHeight="1100" math="0" shadow="0">
      <root>
        <mxCell id="0" />
        <mxCell id="1" parent="0" />
        <mxCell id="hjcjQeV8Ry2GHQEgtmlX-1" value="" style="group" vertex="1" connectable="0" parent="1">
          <mxGeometry x="100" y="621" width="430" height="124" as="geometry" />
        </mxCell>
        <mxCell id="hjcjQeV8Ry2GHQEgtmlX-2" value="" style="rounded=1;whiteSpace=wrap;html=1;strokeWidth=4;fillColor=#DE9997;strokeColor=#000000;fillStyle=auto;gradientColor=#E05151;" vertex="1" parent="hjcjQeV8Ry2GHQEgtmlX-1">
          <mxGeometry width="429.99999999999994" height="124" as="geometry" />
        </mxCell>
        <mxCell id="hjcjQeV8Ry2GHQEgtmlX-3" value="&lt;b&gt;&lt;font style=&quot;font-size: 16px;&quot;&gt;i.Diffusion Model&lt;/font&gt;&lt;/b&gt;" style="rounded=1;whiteSpace=wrap;html=1;strokeWidth=4;fillColor=#FFFF66;strokeColor=#000000;" vertex="1" parent="hjcjQeV8Ry2GHQEgtmlX-1">
          <mxGeometry x="40" y="43.99666666666666" width="350" height="57.86666666666667" as="geometry" />
        </mxCell>
        <mxCell id="hjcjQeV8Ry2GHQEgtmlX-4" value="Theory" style="text;html=1;strokeColor=none;fillColor=none;align=center;verticalAlign=middle;whiteSpace=wrap;rounded=0;fontStyle=1;fontSize=16;" vertex="1" parent="hjcjQeV8Ry2GHQEgtmlX-1">
          <mxGeometry x="30.001428571428562" y="3.3066666666666666" width="61.42857142857142" height="24.8" as="geometry" />
        </mxCell>
        <mxCell id="hjcjQeV8Ry2GHQEgtmlX-5" value="" style="group;fillColor=default;" vertex="1" connectable="0" parent="1">
          <mxGeometry x="100" y="213" width="430" height="157" as="geometry" />
        </mxCell>
        <mxCell id="hjcjQeV8Ry2GHQEgtmlX-6" value="" style="rounded=1;whiteSpace=wrap;html=1;strokeWidth=4;fillColor=#99CCFF;strokeColor=#000000;" vertex="1" parent="hjcjQeV8Ry2GHQEgtmlX-5">
          <mxGeometry width="430" height="148.97" as="geometry" />
        </mxCell>
        <mxCell id="hjcjQeV8Ry2GHQEgtmlX-7" value="&lt;b style=&quot;border-color: var(--border-color); font-size: 16px;&quot;&gt;Robotic Perception&lt;/b&gt;" style="rounded=1;whiteSpace=wrap;html=1;strokeWidth=4;fillColor=#FFFFCC;" vertex="1" parent="hjcjQeV8Ry2GHQEgtmlX-5">
          <mxGeometry x="20" y="55.870000000000005" width="120" height="55.86" as="geometry" />
        </mxCell>
        <mxCell id="hjcjQeV8Ry2GHQEgtmlX-8" value="&lt;b&gt;&lt;font style=&quot;font-size: 16px;&quot;&gt;Autonomous Driving&lt;/font&gt;&lt;/b&gt;" style="rounded=1;whiteSpace=wrap;html=1;strokeWidth=4;fillColor=#FFFFCC;" vertex="1" parent="hjcjQeV8Ry2GHQEgtmlX-5">
          <mxGeometry x="270" y="55.87" width="110" height="55.86" as="geometry" />
        </mxCell>
        <mxCell id="hjcjQeV8Ry2GHQEgtmlX-9" value="Application" style="text;html=1;strokeColor=none;fillColor=none;align=center;verticalAlign=middle;whiteSpace=wrap;rounded=0;fontStyle=1;fontSize=16;" vertex="1" parent="hjcjQeV8Ry2GHQEgtmlX-5">
          <mxGeometry x="45.599999999999994" y="9.314827586206889" width="60" height="27.93103448275862" as="geometry" />
        </mxCell>
        <mxCell id="hjcjQeV8Ry2GHQEgtmlX-10" value="" style="shape=waypoint;sketch=0;fillStyle=solid;size=6;pointerEvents=1;points=[];fillColor=none;resizable=0;rotatable=0;perimeter=centerPerimeter;snapToPoint=1;" vertex="1" parent="hjcjQeV8Ry2GHQEgtmlX-5">
          <mxGeometry x="379.9995238095238" y="73.79862068965517" width="20" height="20" as="geometry" />
        </mxCell>
        <mxCell id="hjcjQeV8Ry2GHQEgtmlX-11" value="" style="shape=waypoint;sketch=0;fillStyle=solid;size=6;pointerEvents=1;points=[];fillColor=none;resizable=0;rotatable=0;perimeter=centerPerimeter;snapToPoint=1;" vertex="1" parent="hjcjQeV8Ry2GHQEgtmlX-5">
          <mxGeometry x="390.00190476190477" y="73.79862068965517" width="20" height="20" as="geometry" />
        </mxCell>
        <mxCell id="hjcjQeV8Ry2GHQEgtmlX-12" value="" style="shape=waypoint;sketch=0;fillStyle=solid;size=6;pointerEvents=1;points=[];fillColor=none;resizable=0;rotatable=0;perimeter=centerPerimeter;snapToPoint=1;" vertex="1" parent="hjcjQeV8Ry2GHQEgtmlX-5">
          <mxGeometry x="400.00428571428574" y="73.79862068965517" width="20" height="20" as="geometry" />
        </mxCell>
        <mxCell id="hjcjQeV8Ry2GHQEgtmlX-13" value="&lt;span style=&quot;font-size: 16px;&quot;&gt;&lt;b&gt;Semantic Mapping&lt;br&gt;&lt;/b&gt;&lt;/span&gt;" style="rounded=1;whiteSpace=wrap;html=1;strokeWidth=4;fillColor=#FFFFCC;" vertex="1" parent="hjcjQeV8Ry2GHQEgtmlX-5">
          <mxGeometry x="150" y="55.870000000000005" width="108.81" height="55.86" as="geometry" />
        </mxCell>
        <mxCell id="hjcjQeV8Ry2GHQEgtmlX-14" value="" style="shape=flexArrow;endArrow=classic;html=1;rounded=0;width=47.58620689655172;endSize=4.448275862068966;strokeWidth=4;endWidth=42.66349583828775;fillColor=#FFB45E;" edge="1" parent="1">
          <mxGeometry width="50" height="50" relative="1" as="geometry">
            <mxPoint x="414" y="410" as="sourcePoint" />
            <mxPoint x="414" y="370" as="targetPoint" />
            <Array as="points" />
          </mxGeometry>
        </mxCell>
        <mxCell id="hjcjQeV8Ry2GHQEgtmlX-15" value="" style="shape=flexArrow;endArrow=classic;html=1;rounded=0;width=47.58620689655172;endSize=4.448275862068966;strokeWidth=4;endWidth=42.66349583828775;fillColor=#FFB45E;" edge="1" parent="1">
          <mxGeometry width="50" height="50" relative="1" as="geometry">
            <mxPoint x="220" y="410" as="sourcePoint" />
            <mxPoint x="220" y="370" as="targetPoint" />
            <Array as="points" />
          </mxGeometry>
        </mxCell>
        <mxCell id="hjcjQeV8Ry2GHQEgtmlX-16" value="" style="rounded=1;whiteSpace=wrap;html=1;strokeWidth=4;fillColor=#EB8A60;strokeColor=#000000;" vertex="1" parent="1">
          <mxGeometry x="100" y="420" width="430" height="150" as="geometry" />
        </mxCell>
        <mxCell id="hjcjQeV8Ry2GHQEgtmlX-17" value="Method" style="text;html=1;strokeColor=none;fillColor=none;align=center;verticalAlign=middle;whiteSpace=wrap;rounded=0;fontStyle=1;fontSize=16;" vertex="1" parent="1">
          <mxGeometry x="130" y="430" width="60" height="30" as="geometry" />
        </mxCell>
        <mxCell id="hjcjQeV8Ry2GHQEgtmlX-18" value="" style="shape=flexArrow;endArrow=classic;html=1;rounded=0;width=47.58620689655172;endSize=4.448275862068966;strokeWidth=4;endWidth=42.66349583828775;fillColor=#FFB45E;" edge="1" parent="1">
          <mxGeometry width="50" height="50" relative="1" as="geometry">
            <mxPoint x="413" y="615" as="sourcePoint" />
            <mxPoint x="413" y="575" as="targetPoint" />
            <Array as="points" />
          </mxGeometry>
        </mxCell>
        <mxCell id="hjcjQeV8Ry2GHQEgtmlX-19" value="" style="shape=flexArrow;endArrow=classic;html=1;rounded=0;width=47.58620689655172;endSize=4.448275862068966;strokeWidth=4;endWidth=42.66349583828775;fillColor=#FFB45E;" edge="1" parent="1">
          <mxGeometry width="50" height="50" relative="1" as="geometry">
            <mxPoint x="219" y="615" as="sourcePoint" />
            <mxPoint x="219" y="575" as="targetPoint" />
            <Array as="points" />
          </mxGeometry>
        </mxCell>
        <mxCell id="hjcjQeV8Ry2GHQEgtmlX-20" value="&lt;b style=&quot;border-color: var(--border-color); font-size: 16px;&quot;&gt;i.Semantic&lt;br style=&quot;border-color: var(--border-color);&quot;&gt;Deformable&lt;br style=&quot;border-color: var(--border-color);&quot;&gt;Transformer&lt;/b&gt;" style="rounded=1;whiteSpace=wrap;html=1;strokeWidth=4;fillColor=#FFFF99;" vertex="1" parent="1">
          <mxGeometry x="130" y="470" width="120" height="70" as="geometry" />
        </mxCell>
        <mxCell id="hjcjQeV8Ry2GHQEgtmlX-21" value="&lt;b style=&quot;border-color: var(--border-color); font-size: 16px;&quot;&gt;iii.Zero-Shot&lt;br style=&quot;border-color: var(--border-color);&quot;&gt;Learning&amp;nbsp;&lt;/b&gt;&lt;span style=&quot;font-size: 16px;&quot;&gt;&lt;b&gt;&lt;br&gt;&lt;/b&gt;&lt;/span&gt;" style="rounded=1;whiteSpace=wrap;html=1;strokeWidth=4;fillColor=#FFFF99;" vertex="1" parent="1">
          <mxGeometry x="391" y="470" width="110" height="70" as="geometry" />
        </mxCell>
        <mxCell id="hjcjQeV8Ry2GHQEgtmlX-22" value="&lt;b style=&quot;border-color: var(--border-color); font-size: 16px;&quot;&gt;ii.PAC Theory&amp;nbsp;&lt;/b&gt;&lt;span style=&quot;font-size: 16px;&quot;&gt;&lt;b&gt;&lt;br&gt;&lt;/b&gt;&lt;/span&gt;" style="rounded=1;whiteSpace=wrap;html=1;strokeWidth=4;fillColor=#FFFF99;" vertex="1" parent="1">
          <mxGeometry x="265" y="470" width="110" height="70" as="geometry" />
        </mxCell>
      </root>
    </mxGraphModel>
  </diagram>
</mxfile>
